<svg width="257" height="45" viewBox="0 0 257 45" fill="none" xmlns="http://www.w3.org/2000/svg">
<path fill-rule="evenodd" clip-rule="evenodd" d="M228.371 38.4812V5.2876H236.847V18.3611H248.167V5.2876H256.643V38.4812H248.167V23.9705H236.847V38.4812H228.371ZM201.221 13.6453C205.877 13.6453 209.652 17.4197 209.652 22.0754C209.652 26.7314 205.877 30.5061 201.221 30.5061C196.565 30.5061 192.791 26.7314 192.791 22.0754C192.791 17.4197 196.565 13.6453 201.221 13.6453ZM0 5.28882H8.7648V30.6521H18.7645V5.28882H27.529V30.6521H37.8559V5.28882H46.6203L46.6747 38.8008L0 38.7776V5.28882ZM147.374 38.4885V5.28955H156.139V16.9832L166.407 5.28687H177.218L165.895 17.4202L178.049 38.4885H168.582L160.201 23.5083L156.139 27.8586V38.4885H147.374ZM112.345 5.24365H120.792V26.1162L134.294 5.24365H142.934V38.4565H134.486V17.2849L120.792 38.4565H112.345V5.24365ZM85.2687 5.28882H107.959V12.4348H93.3574V38.7864H85.2687V5.28882ZM71.3829 23.0515C70.2729 23.4214 68.5066 23.8652 66.0853 24.3838C63.6741 24.9019 62.0881 25.4092 61.3477 25.896C60.2164 26.7102 59.6455 27.7253 59.6455 28.9626C59.6455 30.1895 60.1002 31.2363 61.0095 32.1243C61.9189 33.0122 63.0715 33.457 64.478 33.457C66.043 33.457 67.5442 32.9385 68.9721 31.9128C70.0189 31.1196 70.7168 30.1682 71.0448 29.0261C71.2667 28.2856 71.3829 26.8691 71.3829 24.7854V23.0515ZM59.7087 16.0088L51.8414 14.613C52.7298 11.3984 54.2631 9.01904 56.4305 7.47534C58.5984 5.9314 61.8237 5.15942 66.0955 5.15942C69.9769 5.15942 72.8742 5.6145 74.7774 6.53394C76.6704 7.4541 78.0134 8.61743 78.7853 10.0342C79.5572 11.4509 79.9487 14.0422 79.9487 17.8279L79.8217 27.979C79.8217 30.866 79.9591 33.0022 80.2341 34.3765C80.5088 35.7515 81.027 37.2214 81.7883 38.7864H73.1597C72.9374 38.2151 72.6517 37.3694 72.324 36.2485C72.1871 35.73 72.0808 35.3918 72.0176 35.2332C70.5371 36.6924 68.9508 37.7817 67.2594 38.5115C65.5671 39.2407 63.7694 39.6113 61.8557 39.6113C58.4825 39.6113 55.8173 38.6912 53.8719 36.8511C51.9262 35.0217 50.9534 32.6956 50.9534 29.8823C50.9534 28.0322 51.3973 26.3718 52.2854 24.9124C53.174 23.4636 54.4111 22.343 56.0183 21.5708C57.6153 20.7991 59.9205 20.1223 62.9343 19.5408C66.9946 18.7795 69.8182 18.0601 71.3829 17.405V16.5273C71.3829 14.835 70.9708 13.6301 70.1456 12.8999C69.3108 12.1807 67.7458 11.8215 65.4509 11.8215C63.8963 11.8215 62.6908 12.1279 61.8237 12.7515C60.946 13.3652 60.2482 14.4543 59.7087 16.0088Z" fill="#000000"/>
<path fill-rule="evenodd" clip-rule="evenodd" d="M201.221 0C213.413 0 223.297 9.8833 223.297 22.0754C223.297 34.2678 213.413 44.1514 201.221 44.1514C189.029 44.1514 179.146 34.2678 179.146 22.0754C179.146 9.8833 189.029 0 201.221 0ZM201.221 11.0525C207.309 11.0525 212.245 15.9875 212.245 22.0754C212.245 28.1633 207.309 33.0989 201.221 33.0989C195.133 33.0989 190.198 28.1633 190.198 22.0754C190.198 15.9875 195.133 11.0525 201.221 11.0525Z" fill="#EBECEC"/>
</svg>
