 <svg
          class="logo"
          width="277"
          height="51"
          viewBox="0 0 277 51"
          fill="none"
          xmlns="http://www.w3.org/2000/svg"
        >
          <path
            fill-rule="evenodd"
            clip-rule="evenodd"
            d="M245.957 43.0407V7.29071H255.087V21.3707H267.278V7.29071H276.407V43.0407H267.278V27.4124H255.087V43.0407H245.957ZM216.717 16.2921C221.732 16.2921 225.797 20.357 225.797 25.3715C225.797 30.386 221.732 34.4512 216.717 34.4512C211.703 34.4512 207.637 30.386 207.637 25.3715C207.637 20.357 211.703 16.2921 216.717 16.2921ZM0 7.29211H9.43958V34.6082H20.2093V7.29211H29.649V34.6082H40.771V7.29211H50.2106L50.2693 43.3845L0 43.3596V7.29211ZM158.723 43.0484V7.293H168.163V19.887L179.222 7.28961H190.865L178.67 20.3576L191.761 43.0484H181.564L172.538 26.9147L168.163 31.5998V43.0484H158.723ZM120.996 7.24341H130.094V22.5708L144.636 7.24341H153.94V43.0138H144.843V20.2119L130.094 43.0138H120.996V7.24341ZM91.8351 7.29211H116.273V14.9885H100.547V43.369H91.8351V7.29211ZM76.8801 26.4226C75.6844 26.8211 73.7823 27.2991 71.1743 27.8575C68.5774 28.4153 66.8696 28.9619 66.0719 29.4863C64.8538 30.363 64.2387 31.4561 64.2387 32.7886C64.2387 34.1102 64.7283 35.2375 65.7079 36.1939C66.687 37.1503 67.9286 37.6291 69.4434 37.6291C71.1289 37.6291 72.7458 37.0709 74.2836 35.9663C75.4109 35.1122 76.1627 34.0872 76.5159 32.8572C76.7548 32.0599 76.8801 30.5342 76.8801 28.2901V26.4226ZM64.3068 18.8374L55.8337 17.3344C56.7904 13.8719 58.4416 11.3094 60.7762 9.64691C63.1111 7.9841 66.5847 7.15271 71.1856 7.15271C75.3658 7.15271 78.4859 7.64252 80.5357 8.6329C82.5749 9.62421 84.0211 10.8771 84.8523 12.4027C85.6837 13.9286 86.1052 16.7193 86.1052 20.7964L85.9686 31.7296C85.9686 34.8389 86.1165 37.1395 86.4127 38.6198C86.7087 40.1006 87.2668 41.6835 88.0869 43.369H78.7938C78.5543 42.7538 78.2467 41.8428 77.8938 40.6358C77.7461 40.0776 77.6319 39.7134 77.5635 39.5422C75.9691 41.114 74.2606 42.2873 72.4388 43.073C70.6164 43.8585 68.68 44.2576 66.6193 44.2576C62.9861 44.2576 60.1157 43.2666 58.0204 41.2849C55.925 39.3146 54.8773 36.809 54.8773 33.7796C54.8773 31.7869 55.3552 29.9985 56.3119 28.4267C57.2689 26.8665 58.6009 25.6595 60.332 24.8281C62.0521 23.9967 64.5349 23.2679 67.7806 22.6415C72.1539 21.8214 75.1946 21.0467 76.8801 20.3411V19.3958C76.8801 17.5734 76.4362 16.2754 75.5475 15.4891C74.6481 14.7144 72.9626 14.3277 70.4911 14.3277C68.817 14.3277 67.5184 14.6577 66.5847 15.3295C65.6393 15.9905 64.8879 17.1632 64.3068 18.8374Z"
            fill="#EBECEC"
          />
          <path
            fill-rule="evenodd"
            clip-rule="evenodd"
            d="M216.717 0C230.73 0 242.089 11.359 242.089 25.3715C242.089 39.384 230.73 50.743 216.717 50.743C202.705 50.743 191.346 39.384 191.346 25.3715C191.346 11.359 202.705 0 216.717 0ZM216.717 13.8461C223.082 13.8461 228.242 19.0063 228.242 25.3715C228.242 31.737 223.082 36.8972 216.717 36.8972C210.352 36.8972 205.191 31.737 205.191 25.3715C205.191 19.0063 210.352 13.8461 216.717 13.8461Z"
            fill="#00B9F2"
          />

          <circle cx="216.717" cy="25.3715" r="9" fill="#ebecec">
          </circle>
        </svg>