<svg width="41" height="13" viewBox="0 0 41 13" fill="none" xmlns="http://www.w3.org/2000/svg">
<path fill-rule="evenodd" clip-rule="evenodd" d="M6.83203 9.71661C5.74097 9.71661 5.66504 9.64041 4.75708 9.15991C4.60742 9.38331 4.12183 9.76711 3.94727 9.76711C3.43982 9.76711 3.28271 7.81371 3.23975 7.2831C3.21509 6.97811 3.38489 5.85731 3.48511 5.55991C3.71936 4.86511 4.0144 4.44621 4.49036 3.98411C5.55334 2.95151 7.38196 3.0013 8.64734 4.00451L9.21143 4.60431C10.2551 6.05541 9.93823 7.9081 8.48694 9.09411C8.32703 9.2248 8.20825 9.2824 8.01355 9.37991C7.7417 9.5156 7.20801 9.71661 6.83203 9.71661ZM0 7.01321V6.02221V6.01371C0.000244141 5.84081 0.00878906 5.9882 0.0235596 5.88841L0.0858154 5.40001C0.129272 5.1321 0.165283 4.9805 0.234985 4.73901C1.05786 1.88221 3.6626 5.72205e-06 6.62964 5.72205e-06C8.3988 5.72205e-06 10.3872 0.847906 11.4083 2.15441C11.4872 2.25531 11.5233 2.28111 11.5966 2.3709C13.3263 4.48931 13.5913 7.9475 11.9071 10.1863C10.6895 11.8049 8.97571 12.9555 6.78137 12.9555C5.62305 12.9555 4.97339 12.86 4.0271 12.2176C3.91003 12.1383 3.89539 12.1113 3.79553 12.0444C3.61926 12.1626 3.42505 12.4178 3.01123 12.6267C2.72974 12.769 2.35754 12.9555 1.97375 12.9555C0.822021 12.9555 1.00854 12.7846 0.903687 11.7482C0.81897 10.9154 0.409058 9.65281 0.214844 8.69191C0.15564 8.39911 0.125 8.18221 0.0782471 7.86701L0.0238037 7.26891C0.012207 7.19271 0.00488281 7.1062 0 7.01321ZM17.3077 9.91901H18.7249V5.11121H18.9271L19.7178 7.50901C19.8569 7.9257 19.9714 8.26871 20.1104 8.68541C20.1975 8.94621 20.4911 9.701 20.4962 9.91901H21.8118L22.2169 8.70441C22.2937 8.51191 22.356 8.314 22.4254 8.1034L23.083 6.23061C23.1509 6.02651 23.2223 5.86971 23.2987 5.63671C23.4498 5.17671 23.3846 5.1321 23.6339 5.11121V9.91901H25.0509V3.3905H22.824C22.6788 4.01361 21.3386 7.44811 21.3058 7.84411C20.9602 7.83641 21.0907 7.74651 20.9664 7.42421L19.6359 3.3905H17.3077V9.91901ZM31.7311 6.5282V6.88251C31.7311 7.82681 30.8611 8.70441 29.9092 8.70441H29.5044C28.6801 8.70441 28.0201 8.06031 27.8143 7.40841C27.2189 5.52111 28.8584 4.07911 30.5106 4.71211C31.1471 4.95611 31.7311 5.63331 31.7311 6.5282ZM26.1641 6.42701C26.1641 7.56091 26.3444 8.39111 27.0864 9.14881C28.1667 10.2518 30.0968 10.421 31.3613 9.347L31.8323 8.90681C31.9033 9.21211 32.0782 9.61001 32.0853 9.91901H33.2493V3.3905H32.0853C32.0559 3.74231 31.8597 4.07401 31.8323 4.40281C29.7936 2.05711 26.1641 3.50561 26.1641 6.42701ZM36.0834 6.57901L34.5747 9.06861C34.3967 9.35181 34.2128 9.62821 34.0588 9.91901H35.729C35.9867 9.53411 36.224 9.10461 36.4723 8.68851L37.1968 7.43931C37.5061 7.44611 37.4395 7.49481 37.7003 7.94811C37.8706 8.24431 38.7164 9.70841 38.7655 9.91901H40.4861C40.4689 9.7101 38.672 6.79131 38.4619 6.47781L40.2838 3.3905H38.6135C38.5725 3.56831 38.4132 3.81091 38.3074 3.99551L37.63 5.13981C37.3391 5.62201 37.5115 5.56671 37.1461 5.56671C37.0924 5.33711 36.1724 3.75001 35.9822 3.3905H34.312C34.3517 3.53941 34.6371 4.0076 34.7383 4.17891C34.9415 4.52211 36.0834 6.47441 36.0834 6.57901Z" fill="#000000"/>
</svg>
