<svg width="23" height="23" viewBox="0 0 23 23" fill="none" xmlns="http://www.w3.org/2000/svg">
<path fill-rule="evenodd" clip-rule="evenodd" d="M9.22589 1.063C13.7341 1.063 17.3888 4.71766 17.3888 9.22584C17.3888 13.734 13.7341 17.3889 9.22589 17.3889C4.71769 17.3889 1.06299 13.734 1.06299 9.22584C1.06299 4.71766 4.71769 1.063 9.22589 1.063ZM14.9981 14.9981L22.1233 22.1233L14.9981 14.9981Z" fill="#2C2E35"/>
<path d="M14.9981 14.9981L22.1233 22.1233M9.22589 1.063C13.7341 1.063 17.3888 4.71766 17.3888 9.22584C17.3888 13.734 13.7341 17.3889 9.22589 17.3889C4.71769 17.3889 1.06299 13.734 1.06299 9.22584C1.06299 4.71766 4.71769 1.063 9.22589 1.063Z" stroke="#CCCCCC" stroke-width="2.126" stroke-miterlimit="22.9256"/>
</svg>
